<svg width="23" height="20" viewBox="0 0 23 20" fill="none" xmlns="http://www.w3.org/2000/svg">
<g id="Frame">
<g clip-path="url(#clip0_2176_837)">
<path id="Vector" d="M10.3945 1.37115C10.6328 0.910208 10.4531 0.343802 9.99609 0.105521C9.53906 -0.132761 8.96875 0.0469268 8.73047 0.503958L5.09375 7.50005H1.75C1.05859 7.50005 0.5 8.05865 0.5 8.75005C0.5 9.44146 1.05859 10.0001 1.75 10.0001L3.77734 18.1055C4.05469 19.2188 5.05469 20.0001 6.20312 20.0001H17.2969C18.4453 20.0001 19.4453 19.2188 19.7227 18.1055L21.75 10.0001C22.4414 10.0001 23 9.44146 23 8.75005C23 8.05865 22.4414 7.50005 21.75 7.50005H18.4062L14.7695 0.503958C14.5312 0.0469268 13.9648 -0.132761 13.5039 0.105521C13.043 0.343802 12.8672 0.910208 13.1055 1.37115L16.293 7.50005H7.20703L10.3945 1.37115ZM8 11.8751V15.6251C8 15.9688 7.71875 16.2501 7.375 16.2501C7.03125 16.2501 6.75 15.9688 6.75 15.6251V11.8751C6.75 11.5313 7.03125 11.2501 7.375 11.2501C7.71875 11.2501 8 11.5313 8 11.8751ZM11.75 11.2501C12.0938 11.2501 12.375 11.5313 12.375 11.8751V15.6251C12.375 15.9688 12.0938 16.2501 11.75 16.2501C11.4062 16.2501 11.125 15.9688 11.125 15.6251V11.8751C11.125 11.5313 11.4062 11.2501 11.75 11.2501ZM16.75 11.8751V15.6251C16.75 15.9688 16.4688 16.2501 16.125 16.2501C15.7812 16.2501 15.5 15.9688 15.5 15.6251V11.8751C15.5 11.5313 15.7812 11.2501 16.125 11.2501C16.4688 11.2501 16.75 11.5313 16.75 11.8751Z" fill="#9CA3AF"/>
</g>
</g>
<defs>
<clipPath id="clip0_2176_837">
<path d="M0.5 0H23V20H0.5V0Z" fill="white"/>
</clipPath>
</defs>
</svg>
